# xmcd
#
# Track frame offsets: 
#        180
#        15689
#        34153
#        47939
#        65343
#        84746
#        102129
#        118628
#        133719
#        151327
#        167148
#        186500
#        205696
#        227938
#        247385
#        265522
#        283367
#        300549
#        318259
#
# Disc length: 4454 seconds
#
# Revision: 1
# Processed by: cddbd v1.5PL3 Copyright (c) Steve Scherf et al.
# Submitted via: ExactAudioCopy v0.95a4
#
DISCID=14116413
DTITLE=Various Artist - 十大福建男巨星
DYEAR=1997
DGENRE=Pop
TTITLE0=陈雷 - 最佳男主角
TTITLE1=陈雷 - 随缘
TTITLE2=袁晓迪 - 谁人卡花
TTITLE3=袁晓迪 - 心酸讲无话
TTITLE4=罗时丰 - 望酒来作胆
TTITLE5=罗时丰 - 感情到最后
TTITLE6=谢雷 - 情长
TTITLE7=谢雷 - 博感情
TTITLE8=陈百潭 - 爱情一阵风
TTITLE9=陈百潭 - 初恋
TTITLE10=七郎 - 解酒
TTITLE11=七郎 - 人的命
TTITLE12=叶启田 - 不通认输
TTITLE13=叶启田 - 野鸟
TTITLE14=王识贤 - 酒醉的恰恰
TTITLE15=王识贤 - 啊！伤心的话
TTITLE16=王建杰 - 车站
TTITLE17=王建杰 - 小雨
TTITLE18=林清国 - 命
EXTD=
EXTT0=
EXTT1=
EXTT2=
EXTT3=
EXTT4=
EXTT5=
EXTT6=
EXTT7=
EXTT8=
EXTT9=
EXTT10=
EXTT11=
EXTT12=
EXTT13=
EXTT14=
EXTT15=
EXTT16=
EXTT17=
EXTT18=
PLAYORDER=
